# xmcd
# Track frame offsets:
# 150
# 17195
# 28840
#
# Disc length: 594 seconds
# Revision: 0
# Processed by: cddbd v1.4PL0 Copyright (c) Steve Scherf et al.
# Submitted via: VisiTrax 2.9.5.180 - For more info visit www.synapsa.com
#
DISCID=1e025003
DTITLE=Kasey Chambers - True Colours
DYEAR=2003
DGENRE=
TTITLE0=True Colours
TTITLE1=If I Could
TTITLE2=Lonely
EXTD=
EXTT0=
EXTT1=
EXTT2=
PLAYORDER=
